<svg width="11.605530" height="11.605469" viewBox="0 0 11.6055 11.6055" fill="none" xmlns="http://www.w3.org/2000/svg" xmlns:xlink="http://www.w3.org/1999/xlink">
	<desc>
			Created with Pixso.
	</desc>
	<defs/>
	<path id="Rectangle 193" d="M8.78 1.74C9.19 1.33 9.85 1.33 10.26 1.74C10.67 2.15 10.67 2.81 10.26 3.22L2.63 10.85C2.22 11.26 1.56 11.26 1.15 10.85C0.74 10.44 0.74 9.78 1.15 9.37L8.78 1.74Z" fill="#F9F9F9" fill-opacity="1.000000" fill-rule="nonzero"/>
	<path id="Vector 3 (Stroke)" d="M10.6 11.6C10.05 11.6 9.6 11.15 9.6 10.6L9.6 2L10.6 2L1 2C0.44 2 0 1.55 0 1C0 0.44 0.44 0 1 0L9.6 0C10.71 0 11.6 0.89 11.6 2L11.6 10.6C11.6 11.15 11.15 11.6 10.6 11.6Z" fill="#F9F9F9" fill-opacity="1.000000" fill-rule="evenodd"/>
</svg>
