<svg width="22.005737" height="22.000000" viewBox="0 0 22.0057 22" fill="none" xmlns="http://www.w3.org/2000/svg" xmlns:xlink="http://www.w3.org/1999/xlink">
	<desc>
			Created with Pixso.
	</desc>
	<defs/>
	<path id="" d="M21.54 16.92L16.52 11.98C15.49 11 14.02 10.82 12.82 11.38L8.22 6.78L8.22 4.12L2.77 0L0.02 2.75L4.14 8.2L6.81 8.2L11.36 12.76C10.8 13.96 10.97 15.46 11.96 16.45L16.99 21.48C17.63 22.08 18.62 22.08 19.27 21.48L21.54 19.2C22.15 18.6 22.15 17.57 21.54 16.92ZM13.21 9.79Q13.72 9.66 14.24 9.66C15.49 9.66 16.6 10.14 17.46 11L18.32 11.81C20.04 11.04 21.37 9.53 21.8 7.69C22.06 6.66 22.06 5.62 21.84 4.72C21.72 4.25 21.11 4.12 20.77 4.46L17.81 7.39L14.58 7.39L14.58 4.21L17.55 1.24C17.89 0.9 17.72 0.3 17.25 0.17C16.34 -0.05 15.36 -0.05 14.33 0.21C11.92 0.77 10.07 2.79 9.68 5.19C9.64 5.54 9.64 5.88 9.64 6.23L13.21 9.79ZM10.07 16.07C9.68 15.16 9.56 14.17 9.77 13.19L7.24 10.65L0.83 17.05C-0.28 18.21 -0.28 20.02 0.83 21.18C1.39 21.74 2.16 22 2.9 22C3.63 22 4.4 21.74 4.96 21.18L10.07 16.07ZM3.8 19.25C3.8 19.85 3.33 20.28 2.77 20.28C2.16 20.28 1.74 19.85 1.74 19.25C1.74 18.69 2.16 18.21 2.77 18.21C3.33 18.21 3.8 18.69 3.8 19.25Z" fill="#539C39" fill-opacity="1.000000" fill-rule="evenodd"/>
</svg>
