<svg width="22.000000" height="22.000000" viewBox="0 0 22 22" fill="none" xmlns="http://www.w3.org/2000/svg" xmlns:xlink="http://www.w3.org/1999/xlink">
	<desc>
			Created with Pixso.
	</desc>
	<defs/>
	<path id="" d="M19.25 10.31L19.25 7.56L21.31 7.56C21.65 7.56 22 7.26 22 6.87C22 6.53 21.65 6.18 21.31 6.18L19.25 6.18L19.25 5.5C19.25 3.99 18 2.75 16.5 2.75L15.81 2.75L15.81 0.68C15.81 0.34 15.46 0 15.12 0C14.73 0 14.43 0.34 14.43 0.68L14.43 2.75L11.68 2.75L11.68 0.68C11.68 0.34 11.34 0 11 0C10.61 0 10.31 0.34 10.31 0.68L10.31 2.75L7.56 2.75L7.56 0.68C7.56 0.34 7.21 0 6.87 0C6.48 0 6.18 0.34 6.18 0.68L6.18 2.75L5.5 2.75C3.95 2.75 2.75 3.99 2.75 5.5L2.75 6.18L0.68 6.18C0.3 6.18 0 6.53 0 6.87C0 7.26 0.3 7.56 0.68 7.56L2.75 7.56L2.75 10.31L0.68 10.31C0.3 10.31 0 10.65 0 11C0 11.38 0.3 11.68 0.68 11.68L2.75 11.68L2.75 14.43L0.68 14.43C0.3 14.43 0 14.78 0 15.12C0 15.51 0.3 15.81 0.68 15.81L2.75 15.81L2.75 16.5C2.75 18.04 3.95 19.25 5.5 19.25L6.18 19.25L6.18 21.31C6.18 21.69 6.48 22 6.87 22C7.21 22 7.56 21.69 7.56 21.31L7.56 19.25L10.31 19.25L10.31 21.31C10.31 21.69 10.61 22 11 22C11.34 22 11.68 21.69 11.68 21.31L11.68 19.25L14.43 19.25L14.43 21.31C14.43 21.69 14.73 22 15.12 22C15.46 22 15.81 21.69 15.81 21.31L15.81 19.25L16.5 19.25C18 19.25 19.25 18.04 19.25 16.5L19.25 15.81L21.31 15.81C21.65 15.81 22 15.51 22 15.12C22 14.78 21.65 14.43 21.31 14.43L19.25 14.43L19.25 11.68L21.31 11.68C21.65 11.68 22 11.38 22 11C22 10.65 21.65 10.31 21.31 10.31L19.25 10.31ZM16.5 6.18L16.5 15.81C16.5 16.19 16.15 16.5 15.81 16.5L6.18 16.5C5.8 16.5 5.5 16.19 5.5 15.81L5.5 6.18C5.5 5.84 5.8 5.5 6.18 5.5L15.81 5.5C16.15 5.5 16.5 5.84 16.5 6.18ZM6.87 6.87L6.87 15.12L15.12 15.12L15.12 6.87L6.87 6.87Z" fill="#539C39" fill-opacity="1.000000" fill-rule="evenodd"/>
</svg>
