<svg width="27.500000" height="19.250000" viewBox="0 0 27.5 19.25" fill="none" xmlns="http://www.w3.org/2000/svg" xmlns:xlink="http://www.w3.org/1999/xlink">
	<desc>
			Created with Pixso.
	</desc>
	<defs/>
	<path id="" d="M6.31 5.5C7.82 5.5 9.06 4.29 9.06 2.75C9.06 1.24 7.82 0 6.31 0C4.76 0 3.56 1.24 3.56 2.75C3.56 4.29 4.76 5.5 6.31 5.5ZM13.79 0C11.9 0 10.35 1.54 10.35 3.43C10.35 5.37 11.9 6.87 13.79 6.87C15.68 6.87 17.23 5.37 17.23 3.43C17.23 1.54 15.68 0 13.79 0ZM21.44 5.5C22.94 5.5 24.19 4.29 24.19 2.75C24.19 1.24 22.94 0 21.44 0C19.89 0 18.69 1.24 18.69 2.75C18.69 4.29 19.89 5.5 21.44 5.5ZM4.12 6.87C2.57 6.87 1.37 8.12 1.37 9.62C1.37 10.39 1.97 11 2.75 11L6.4 11C6.83 9.32 8.07 7.94 9.66 7.3C9.23 7.04 8.76 6.87 8.25 6.87L4.12 6.87ZM19.25 6.87C18.73 6.87 18.26 7.04 17.83 7.26C19.46 7.9 20.75 9.28 21.18 11L24.75 11C25.48 11 26.12 10.39 26.12 9.62C26.12 8.12 24.87 6.87 23.37 6.87L19.25 6.87ZM19.76 11C19.29 9.71 18.17 8.67 16.8 8.37C16.5 8.29 16.19 8.25 15.85 8.25L11.73 8.25C11.38 8.25 11 8.33 10.69 8.42C9.36 8.76 8.29 9.75 7.86 11C7.69 11.42 7.6 11.9 7.6 12.37C7.6 13.14 8.2 13.75 8.98 13.75L18.6 13.75C19.37 13.75 19.98 13.14 19.98 12.37C19.98 11.9 19.89 11.42 19.76 11ZM27.5 17.87C27.5 17.14 26.85 16.5 26.12 16.5L1.37 16.5C0.6 16.5 0 17.14 0 17.87C0 18.64 0.6 19.25 1.37 19.25L26.12 19.25C26.85 19.25 27.5 18.64 27.5 17.87Z" fill="#539C39" fill-opacity="1.000000" fill-rule="evenodd"/>
</svg>
