<svg width="22.708008" height="22.018555" viewBox="0 0 22.708 22.0186" fill="none" xmlns="http://www.w3.org/2000/svg" xmlns:xlink="http://www.w3.org/1999/xlink">
	<desc>
			Created with Pixso.
	</desc>
	<defs/>
	<path id="" d="M21.51 7.39L15.37 6.48L12.57 0.77C12.36 0.3 11.89 0 11.37 0C10.81 0 10.34 0.3 10.12 0.77L7.37 6.48L1.19 7.39C0.67 7.47 0.24 7.82 0.07 8.33C-0.1 8.8 0.03 9.36 0.41 9.71L4.88 14.13L3.85 20.41C3.77 20.92 3.98 21.44 4.41 21.74C4.8 22.08 5.4 22.08 5.83 21.87L11.37 18.9L16.87 21.87C17.34 22.08 17.9 22.08 18.33 21.74C18.76 21.44 18.98 20.92 18.89 20.41L17.82 14.13L22.28 9.71C22.67 9.36 22.8 8.8 22.63 8.33C22.46 7.82 22.03 7.47 21.51 7.39Z" fill="#539C39" fill-opacity="1.000000" fill-rule="evenodd"/>
</svg>
