<svg viewBox="0 0 26 20" xmlns="http://www.w3.org/2000/svg" xmlns:xlink="http://www.w3.org/1999/xlink" width="26.000000" height="20.000000" fill="none" customFrame="#000000">
	<path id="ïš" d="M13 0C18.5078 0 23 4.49219 23 10C23 15.5469 18.5078 20 13 20C7.45312 20 3 15.5469 3 10C3 4.49219 7.45312 0 13 0ZM13 5C12.2969 5 11.75 5.58594 11.75 6.25C11.75 6.95312 12.2969 7.5 13 7.5C13.6641 7.5 14.25 6.95312 14.25 6.25C14.25 5.58594 13.6641 5 13 5ZM14.5625 15C15.0703 15 15.5 14.6094 15.5 14.0625C15.5 13.5547 15.0703 13.125 14.5625 13.125L13.9375 13.125L13.9375 9.6875C13.9375 9.17969 13.5078 8.75 13 8.75L11.75 8.75C11.2031 8.75 10.8125 9.17969 10.8125 9.6875C10.8125 10.2344 11.2031 10.625 11.75 10.625L12.0625 10.625L12.0625 13.125L11.4375 13.125C10.8906 13.125 10.5 13.5547 10.5 14.0625C10.5 14.6094 10.8906 15 11.4375 15L14.5625 15Z" fill="rgb(255,255,255)" fill-rule="nonzero" />
</svg>
