<svg viewBox="0 0 26 20" xmlns="http://www.w3.org/2000/svg" xmlns:xlink="http://www.w3.org/1999/xlink" width="26.000000" height="20.000000" fill="none" customFrame="#000000">
	<path id="" d="M13.0469 8.51562L18.8672 13.2422C19.375 13.6719 19.4531 14.4531 19.0234 15L18.6719 15.4688C18.2422 16.0156 17.4219 16.0938 16.9141 15.6641L16.6797 15.4688L15.4688 16.9922C14.9609 17.6172 14.0234 17.6562 13.4375 17.1875L12.6953 16.6016C11.8359 17.6562 10.2734 17.8516 9.17969 16.9531L5.66406 13.75L1.21094 13.75C0.546875 13.75 0 13.2031 0 12.5L0 6.28906C0 5.58594 0.546875 5.03906 1.25 5.03906L5 5C6.60156 3.39844 8.75 2.5 11.0156 2.5L11.2891 2.5L8.08594 5.42969C6.95312 6.48438 6.875 8.28125 7.89062 9.41406C8.47656 10.0391 10.3125 11.0547 11.875 9.57031L13.0469 8.51562ZM23.75 5.03906C24.4141 5.03906 25 5.58594 25 6.28906L25 12.5C25 13.2031 24.4141 13.75 23.75 13.75L20.5469 13.75C20.4297 13.2031 20.1562 12.6562 19.6875 12.2656L13.9844 7.65625L15 6.71875C15.2734 6.48438 15.2734 6.09375 15.0391 5.85938C14.8047 5.58594 14.4141 5.58594 14.1797 5.82031L11.0547 8.67188C11.0156 8.67188 11.0156 8.67188 11.0156 8.67188C10.1953 9.41406 9.21875 8.98438 8.82812 8.55469C8.28125 7.96875 8.28125 6.99219 8.90625 6.36719C8.90625 6.36719 8.90625 6.36719 8.94531 6.36719L12.7734 2.85156C13.0078 2.65625 13.2812 2.5 13.5938 2.5L13.9453 2.53906C16.2109 2.53906 18.3984 3.4375 20 5L23.75 5.03906Z" fill="rgb(255,255,255)" fill-rule="nonzero" />
</svg>
