<svg width="31.500000" height="27.000000" viewBox="0 0 31.5 27" fill="none" xmlns="http://www.w3.org/2000/svg" xmlns:xlink="http://www.w3.org/1999/xlink">
	<desc>
			Created with Pixso.
	</desc>
	<defs/>
	<path id="" d="M2.25 0C0.98 0 0 1.05 0 2.25C0 3.51 0.98 4.5 2.25 4.5L29.25 4.5C30.44 4.5 31.5 3.51 31.5 2.25C31.5 1.05 30.44 0 29.25 0L2.25 0ZM2.25 11.25C0.98 11.25 0 12.3 0 13.5C0 14.76 0.98 15.75 2.25 15.75L29.25 15.75C30.44 15.75 31.5 14.76 31.5 13.5C31.5 12.3 30.44 11.25 29.25 11.25L2.25 11.25ZM2.25 27L29.25 27C30.44 27 31.5 26.01 31.5 24.75C31.5 23.55 30.44 22.5 29.25 22.5L2.25 22.5C0.98 22.5 0 23.55 0 24.75C0 26.01 0.98 27 2.25 27Z" fill="#F9F9F9" fill-opacity="1.000000" fill-rule="evenodd"/>
</svg>
