<svg viewBox="0 0 26 20" xmlns="http://www.w3.org/2000/svg" xmlns:xlink="http://www.w3.org/1999/xlink" width="26.000000" height="20.000000" fill="none" customFrame="#000000">
	<path id="" d="M16.6328 5.89844L22.2188 6.71875C22.6875 6.79688 23.0781 7.10938 23.2344 7.57812C23.3906 8.00781 23.2734 8.51562 22.9219 8.82812L18.8594 12.8516L19.8359 18.5547C19.9141 19.0234 19.7188 19.4922 19.3281 19.7656C18.9375 20.0781 18.4297 20.0781 18 19.8828L13 17.1875L7.96094 19.8828C7.57031 20.0781 7.02344 20.0781 6.67188 19.7656C6.28125 19.4922 6.08594 19.0234 6.16406 18.5547L7.10156 12.8516L3.03906 8.82812C2.6875 8.51562 2.57031 8.00781 2.72656 7.57812C2.88281 7.10938 3.27344 6.79688 3.74219 6.71875L9.36719 5.89844L11.8672 0.703125C12.0625 0.273438 12.4922 0 13 0C13.4688 0 13.8984 0.273438 14.0938 0.703125L16.6328 5.89844Z" fill="rgb(255,255,255)" fill-rule="nonzero" />
</svg>
