<svg viewBox="0 0 26 20" xmlns="http://www.w3.org/2000/svg" xmlns:xlink="http://www.w3.org/1999/xlink" width="26.000000" height="20.000000" fill="none" customFrame="#000000">
	<path id="" d="M22.9609 15.1172L22.0234 19.0625C21.9062 19.6484 21.4375 20.0391 20.8516 20.0391C11.0078 20 3 11.9922 3 2.14844C3 1.5625 3.35156 1.09375 3.9375 0.976562L7.88281 0.0390625C8.42969 -0.078125 9.01562 0.234375 9.25 0.742188L11.0859 5C11.2812 5.50781 11.1641 6.09375 10.7344 6.40625L8.625 8.125C9.95312 10.8203 12.1406 13.0078 14.875 14.3359L16.5938 12.2266C16.9062 11.8359 17.4922 11.6797 18 11.875L22.2578 13.7109C22.7656 13.9844 23.0781 14.5703 22.9609 15.1172Z" fill="rgb(255,255,255)" fill-rule="nonzero" />
</svg>
