<svg viewBox="0 0 25 24" xmlns="http://www.w3.org/2000/svg" xmlns:xlink="http://www.w3.org/1999/xlink" width="25.000000" height="24.000000" fill="none" customFrame="#000000">
	<path id="" d="M22.3009 2.95298C23.5261 2.95298 24.5627 3.98962 24.5627 5.21473C24.5627 5.96865 24.1857 6.62833 23.6203 7.05241L13.3953 14.733C12.8298 15.157 12.123 15.157 11.5576 14.733L1.33258 7.05241C0.767144 6.62833 0.437304 5.96865 0.437304 5.21473C0.437304 3.98962 1.42682 2.95298 2.69906 2.95298L22.3009 2.95298ZM10.6623 15.9581C11.7461 16.7591 13.2068 16.7591 14.2906 15.9581L24.5627 8.23041L24.5627 18.0313C24.5627 19.7277 23.1962 21.047 21.547 21.047L3.45298 21.047C1.75666 21.047 0.437304 19.7277 0.437304 18.0313L0.437304 8.23041L10.6623 15.9581Z" fill="rgb(249,249,249)" fill-opacity="0.97647059" fill-rule="nonzero" />
</svg>
