<svg viewBox="0 0 25 24" xmlns="http://www.w3.org/2000/svg" xmlns:xlink="http://www.w3.org/1999/xlink" width="25.000000" height="24.000000" fill="none" customFrame="#000000">
	<path id="ï…" d="M11.3691 23.4973C8.91889 20.4345 3.45298 13.1309 3.45298 8.98433C3.45298 3.98962 7.45817 -0.0626945 12.5 -0.0626945C17.4947 -0.0626945 21.547 3.98962 21.547 8.98433C21.547 13.1309 16.034 20.4345 13.5838 23.4973C13.0183 24.2041 11.9346 24.2041 11.3691 23.4973ZM12.5 12C14.1492 12 15.5157 10.6806 15.5157 8.98433C15.5157 7.33513 14.1492 5.96865 12.5 5.96865C10.8037 5.96865 9.48433 7.33513 9.48433 8.98433C9.48433 10.6806 10.8037 12 12.5 12Z" fill="rgb(249,249,249)" fill-opacity="0.97647059" fill-rule="nonzero" />
</svg>
