<svg viewBox="0 0 25 24" xmlns="http://www.w3.org/2000/svg" xmlns:xlink="http://www.w3.org/1999/xlink" width="25.000000" height="24.000000" fill="none" customFrame="#000000">
	<path id="" d="M24.5156 18.1727L23.3847 22.9318C23.2433 23.6386 22.6779 24.1098 21.9711 24.1098C10.0969 24.0627 0.437304 14.4031 0.437304 2.5289C0.437304 1.8221 0.861384 1.25666 1.56818 1.1153L6.32729 -0.0155754C6.98697 -0.156935 7.69377 0.220024 7.97649 0.832582L10.1911 5.96865C10.4267 6.58121 10.2854 7.28801 9.76705 7.66497L7.22257 9.73825C8.82465 12.9895 11.4634 15.6282 14.7618 17.2303L16.835 14.6858C17.212 14.2146 17.9188 14.0262 18.5313 14.2618L23.6674 16.4764C24.28 16.8062 24.6569 17.513 24.5156 18.1727Z" fill="rgb(249,249,249)" fill-opacity="0.97647059" fill-rule="nonzero" />
</svg>
