<svg width="152.000183" height="45.583008" viewBox="0 0 152 45.583" fill="none" xmlns="http://www.w3.org/2000/svg" xmlns:xlink="http://www.w3.org/1999/xlink">
	<desc>
			Created with Pixso.
	</desc>
	<defs/>
	<path id="Union" d="M14.6473 1.68799Q14.6472 1.67822 14.6472 1.66846C14.6472 0.754395 15.3404 0.00927734 16.204 0C17.0738 -0.00927734 17.787 0.730957 17.7971 1.65381C17.7971 1.66016 17.7972 1.66699 17.7972 1.67334C17.7972 2.58691 17.1039 3.33203 16.2404 3.3418C15.3705 3.35107 14.6573 2.61084 14.6473 1.68799ZM27.7496 1.66846L27.7496 1.68799C27.7395 2.61084 27.0262 3.35107 26.1564 3.3418C25.2928 3.33203 24.5996 2.58691 24.5996 1.67334L24.5997 1.65381C24.6098 0.730957 25.3231 -0.00927734 26.1928 0C27.0565 0.00927734 27.7496 0.754395 27.7496 1.66846ZM18.1866 2.74854L18.1865 2.73535C18.1865 2.15283 18.6148 1.67822 19.1486 1.67285C19.6863 1.66699 20.1274 2.13916 20.1338 2.72705L20.1339 2.74023C20.1339 3.32227 19.7055 3.79688 19.1718 3.80273C18.634 3.80859 18.193 3.33643 18.1866 2.74854ZM24.2094 2.73535L24.2093 2.74854C24.2029 3.33643 23.7618 3.80859 23.2241 3.80273C22.6903 3.79688 22.262 3.32227 22.262 2.74023L22.262 2.72705C22.2684 2.13916 22.7095 1.66699 23.2473 1.67285C23.781 1.67822 24.2094 2.15283 24.2094 2.73535ZM10.6769 4.65283C10.6769 3.31982 11.7184 2.23877 13.0032 2.23877C14.288 2.23877 15.3296 3.31982 15.3296 4.65283C15.3296 5.98584 14.288 7.06641 13.0032 7.06641C11.7184 7.06641 10.6769 5.98584 10.6769 4.65283ZM31.7189 4.65283C31.7189 5.98584 30.6774 7.06641 29.3926 7.06641C28.1078 7.06641 27.0663 5.98584 27.0663 4.65283C27.0663 3.31982 28.1078 2.23877 29.3926 2.23877C30.6774 2.23877 31.7189 3.31982 31.7189 4.65283ZM16.0986 5.43066C16.0986 5.42383 16.0985 5.4165 16.0985 5.40967C16.0985 4.48682 16.7761 3.73438 17.6204 3.7251C18.4709 3.71582 19.1687 4.46436 19.1788 5.39697C19.179 5.40381 19.179 5.41064 19.179 5.41748C19.179 6.34082 18.5015 7.09326 17.6571 7.10254C16.8065 7.11182 16.1088 6.36328 16.0986 5.43066ZM26.2983 5.40967L26.2982 5.43066C26.288 6.36328 25.5903 7.11182 24.7397 7.10254C23.8954 7.09326 23.2178 6.34082 23.2178 5.41748L23.218 5.39697C23.2281 4.46436 23.9258 3.71582 24.7764 3.7251C25.6208 3.73438 26.2983 4.48682 26.2983 5.40967ZM19.8226 5.69189C19.8225 5.68652 19.8224 5.68066 19.8224 5.67529C19.8224 4.88428 20.4271 4.23877 21.1802 4.23096C21.9387 4.22266 22.5607 4.86328 22.5693 5.66211C22.5694 5.66797 22.5695 5.67334 22.5695 5.6792C22.5695 6.47021 21.9648 7.11523 21.2117 7.12354C20.4532 7.13184 19.8312 6.49072 19.8226 5.69189ZM12.549 9.76855C12.549 8.30518 13.7354 7.11865 15.1989 7.11865C16.6624 7.11865 17.8488 8.30518 17.8488 9.76855C17.8488 11.2324 16.6624 12.4185 15.1989 12.4185C13.7354 12.4185 12.549 11.2324 12.549 9.76855ZM29.8478 9.76855C29.8478 11.2324 28.6614 12.4185 27.1979 12.4185C25.7344 12.4185 24.548 11.2324 24.548 9.76855C24.548 8.30518 25.7344 7.11865 27.1979 7.11865C28.6614 7.11865 29.8478 8.30518 29.8478 9.76855ZM18.5305 10.5029C18.5305 9.02979 19.7247 7.83545 21.1978 7.83545C22.671 7.83545 23.8652 9.02979 23.8652 10.5029C23.8652 11.9761 22.671 13.1704 21.1978 13.1704C19.7247 13.1704 18.5305 11.9761 18.5305 10.5029ZM34.1702 12.2671C34.1702 11.4155 34.9092 10.6104 35.9579 10.3862C37.132 10.1353 38.2495 10.7075 38.4541 11.665C38.476 11.7671 38.4865 11.8696 38.4865 11.9712C38.4865 12.8228 37.7475 13.6279 36.6987 13.8525C35.5247 14.103 34.4072 13.5308 34.2026 12.5737C34.1808 12.4712 34.1702 12.3691 34.1702 12.2671ZM6.43884 10.3872C7.48755 10.6113 8.22662 11.4165 8.22662 12.2681C8.22662 12.3701 8.21606 12.4722 8.19421 12.5747C7.98962 13.5317 6.87207 14.104 5.69806 13.8535C4.64935 13.6289 3.91028 12.8237 3.91028 11.9722C3.91028 11.8706 3.92084 11.7681 3.94269 11.666C4.14728 10.7085 5.26483 10.1362 6.43884 10.3872ZM2.94141 12.0024C3.32385 12.2266 3.52606 12.6587 3.52606 13.1431C3.52606 13.4697 3.43414 13.8198 3.24347 14.1455C2.76996 14.9541 1.86713 15.3057 1.22687 14.9307C0.844421 14.7065 0.642151 14.2744 0.642151 13.79C0.642151 13.4634 0.734131 13.1133 0.924805 12.7876C1.39825 11.979 2.30115 11.6274 2.94141 12.0024ZM38.8707 13.1431C38.8707 12.6587 39.0729 12.2266 39.4554 12.0024C40.0956 11.6274 40.9985 11.979 41.472 12.7876C41.6627 13.1133 41.7546 13.4634 41.7546 13.79C41.7546 14.2744 41.5524 14.7065 41.17 14.9307C40.5297 15.3057 39.6268 14.9541 39.1533 14.1455C38.9626 13.8198 38.8707 13.4697 38.8707 13.1431ZM8.17651 15.2915C8.15137 15.1309 8.13922 14.9712 8.13922 14.814C8.13922 13.4336 9.07587 12.2349 10.3978 12.0283C11.8702 11.7983 13.2631 12.8857 13.5089 14.458C13.534 14.6187 13.5461 14.7783 13.5461 14.9355C13.5461 16.3159 12.6095 17.5146 11.2876 17.7212C9.81512 17.9512 8.42224 16.8638 8.17651 15.2915ZM34.2576 14.814C34.2576 14.9712 34.2454 15.1309 34.2203 15.2915C33.9746 16.8638 32.5817 17.9512 31.1092 17.7212C29.7874 17.5146 28.8506 16.3159 28.8506 14.9355C28.8506 14.7783 28.8628 14.6187 28.8879 14.458C29.1337 12.8857 30.5266 11.7983 31.999 12.0283C33.3209 12.2349 34.2576 13.4336 34.2576 14.814ZM15.6271 15.418C15.6271 13.9546 16.8135 12.7681 18.277 12.7681C19.7405 12.7681 20.9269 13.9546 20.9269 15.418C20.9269 16.8818 19.7405 18.0679 18.277 18.0679C16.8135 18.0679 15.6271 16.8818 15.6271 15.418ZM26.7687 15.418C26.7687 16.8818 25.5823 18.0679 24.1188 18.0679C22.6553 18.0679 21.4689 16.8818 21.4689 15.418C21.4689 13.9546 22.6553 12.7681 24.1188 12.7681C25.5823 12.7681 26.7687 13.9546 26.7687 15.418ZM5.84985 14.5698C6.94141 14.5698 7.82635 15.5879 7.82635 16.8438C7.82635 18.0996 6.94141 19.1177 5.84985 19.1177C4.75824 19.1177 3.87335 18.0996 3.87335 16.8438C3.87335 15.5879 4.75824 14.5698 5.84985 14.5698ZM34.5705 16.8438C34.5705 15.5879 35.4554 14.5698 36.547 14.5698C37.6385 14.5698 38.5235 15.5879 38.5235 16.8438C38.5235 18.0996 37.6385 19.1177 36.547 19.1177C35.4554 19.1177 34.5705 18.0996 34.5705 16.8438ZM1.87061 15.48C2.7738 15.48 3.50604 16.314 3.50604 17.3428C3.50604 18.3716 2.7738 19.2056 1.87061 19.2056C0.967346 19.2056 0.235168 18.3716 0.235168 17.3428C0.235168 16.314 0.967346 15.48 1.87061 15.48ZM40.5262 15.48C41.4294 15.48 42.1616 16.314 42.1616 17.3428C42.1616 18.3716 41.4294 19.2056 40.5262 19.2056C39.623 19.2056 38.8908 18.3716 38.8908 17.3428C38.8908 16.314 39.623 15.48 40.5262 15.48ZM11.7443 19.9756C11.7443 18.1592 13.0286 16.687 14.6129 16.687C16.1971 16.687 17.4814 18.1592 17.4814 19.9756C17.4814 21.7915 16.1971 23.2637 14.6129 23.2637C13.0286 23.2637 11.7443 21.7915 11.7443 19.9756ZM30.6525 19.9756C30.6525 21.7915 29.3682 23.2637 27.7839 23.2637C26.1997 23.2637 24.9154 21.7915 24.9154 19.9756C24.9154 18.1592 26.1997 16.687 27.7839 16.687C29.3682 16.687 30.6525 18.1592 30.6525 19.9756ZM17.8488 21.2085C17.8488 19.3589 19.3484 17.8589 21.1984 17.8589C23.0483 17.8589 24.5479 19.3589 24.5479 21.2085C24.5479 23.0586 23.0483 24.5581 21.1984 24.5581C19.3484 24.5581 17.8488 23.0586 17.8488 21.2085ZM7.1156 20.6606C7.11548 20.6494 7.11542 20.6387 7.11542 20.6274C7.11542 19.2466 8.0647 18.1221 9.24847 18.1089C10.4417 18.0962 11.4213 19.2173 11.4365 20.6133C11.4366 20.6245 11.4366 20.6353 11.4366 20.6465C11.4366 22.0273 10.4874 23.1519 9.30353 23.165C8.11035 23.1777 7.1308 22.0566 7.1156 20.6606ZM35.2805 20.6274C35.2805 20.6387 35.2804 20.6494 35.2803 20.6606C35.2651 22.0566 34.2855 23.1777 33.0923 23.165C31.9085 23.1519 30.9592 22.0273 30.9592 20.6465L30.9592 20.646Q30.9592 20.6299 30.9594 20.6133C30.9745 19.2173 31.9542 18.0962 33.1473 18.1089C34.3311 18.1221 35.2805 19.2466 35.2805 20.6274ZM5.14117 19.9399C6.05408 19.9399 6.79413 20.8096 6.79413 21.8818C6.79413 22.9541 6.05408 23.8232 5.14117 23.8232C4.22833 23.8232 3.48828 22.9541 3.48828 21.8818C3.48828 20.8096 4.22833 19.9399 5.14117 19.9399ZM37.2556 19.9399C38.1685 19.9399 38.9085 20.8096 38.9085 21.8818C38.9085 22.9541 38.1685 23.8232 37.2556 23.8232C36.3427 23.8232 35.6027 22.9541 35.6027 21.8818C35.6027 20.8096 36.3427 19.9399 37.2556 19.9399ZM2.48724 22.271C2.97729 22.3755 3.29419 22.9199 3.29419 23.5737C3.29419 23.7173 3.27887 23.8662 3.24683 24.0171C3.0686 24.854 2.43958 25.4297 1.84186 25.3022C1.35181 25.1978 1.03491 24.6538 1.03491 23.9995C1.03491 23.856 1.05023 23.707 1.08234 23.5562C1.26056 22.7192 1.88953 22.144 2.48724 22.271ZM39.1026 23.5737C39.1026 22.9199 39.4195 22.3755 39.9095 22.271C40.5073 22.144 41.1363 22.7192 41.3145 23.5562C41.3466 23.707 41.3619 23.856 41.3619 23.9995C41.3619 24.6538 41.045 25.1978 40.5549 25.3022C39.9572 25.4297 39.3282 24.854 39.15 24.0171C39.1179 23.8662 39.1026 23.7173 39.1026 23.5737ZM7.53668 23.6162C8.44452 23.624 9.17413 24.4741 9.17413 25.5195L9.17407 25.5391C9.16498 26.5928 8.41711 27.4409 7.50366 27.4331C6.59589 27.4253 5.86621 26.5747 5.86621 25.5298L5.86627 25.5103C5.87543 24.4565 6.62329 23.6084 7.53668 23.6162ZM33.2227 25.5195C33.2227 24.4741 33.9523 23.624 34.8601 23.6162C35.7735 23.6084 36.5214 24.4565 36.5305 25.5103C36.5306 25.5166 36.5306 25.5234 36.5306 25.5298C36.5306 26.5747 35.8009 27.4253 34.8931 27.4331C33.9797 27.4409 33.2319 26.5928 33.2227 25.5391C33.2227 25.5322 33.2227 25.5259 33.2227 25.5195ZM9.52026 26.5122C9.62781 24.9209 10.9025 23.7109 12.3672 23.8096C13.7658 23.9043 14.832 25.1577 14.832 26.6562C14.832 26.7271 14.8297 26.7988 14.8248 26.8706C14.7172 28.4624 13.4426 29.6724 11.9778 29.5732C10.5792 29.4785 9.513 28.2251 9.513 26.7266C9.513 26.6558 9.51538 26.5845 9.52026 26.5122ZM30.0286 23.8096C31.4933 23.7109 32.768 24.9209 32.8755 26.5122C32.8804 26.5845 32.8828 26.6558 32.8828 26.7266C32.8828 28.2251 31.8166 29.4785 30.418 29.5732C28.9532 29.6724 27.6786 28.4624 27.571 26.8706C27.5662 26.7988 27.5638 26.7271 27.5638 26.6562C27.5638 25.1577 28.63 23.9043 30.0286 23.8096ZM15.2951 26.7529C15.2951 25.2896 16.4815 24.103 17.945 24.103C19.4085 24.103 20.5949 25.2896 20.5949 26.7529C20.5949 28.2168 19.4085 29.4028 17.945 29.4028C16.4815 29.4028 15.2951 28.2168 15.2951 26.7529ZM27.1017 26.7529C27.1017 28.2168 25.9153 29.4028 24.4518 29.4028C22.9883 29.4028 21.8019 28.2168 21.8019 26.7529C21.8019 25.2896 22.9883 24.103 24.4518 24.103C25.9153 24.103 27.1017 25.2896 27.1017 26.7529ZM4.0708 24.5806C4.82635 24.5869 5.43359 25.3032 5.43359 26.1836L5.43353 26.2002C5.42584 27.0884 4.80328 27.8027 4.04297 27.7964C3.28741 27.7896 2.68018 27.0737 2.68018 26.1929L2.68024 26.1763C2.68793 25.2886 3.31049 24.5737 4.0708 24.5806ZM36.9622 26.1846C36.9622 25.3042 37.5695 24.5879 38.325 24.5815C39.0853 24.5747 39.7079 25.2896 39.7156 26.1772L39.7156 26.1938C39.7156 27.0747 39.1084 27.7905 38.3528 27.7974C37.5926 27.8037 36.97 27.0894 36.9623 26.2012L36.9622 26.1846ZM0.827026 25.3521C1.2746 25.356 1.63354 25.8809 1.63354 26.5273L1.63348 26.5425C1.62781 27.1958 1.25757 27.7227 0.806519 27.7188C0.358948 27.7148 0 27.1899 0 26.5435L6.10352e-05 26.5283C0.0057373 25.8745 0.375977 25.3481 0.827026 25.3521ZM40.7623 26.5273C40.7623 25.8809 41.1213 25.356 41.5688 25.3521C42.0199 25.3481 42.3901 25.8745 42.3958 26.5283L42.3958 26.5435C42.3958 27.1899 42.0369 27.7148 41.5893 27.7188C41.1382 27.7227 40.768 27.1958 40.7623 26.5425L40.7623 26.5273ZM1.9754 28.085C2.65466 27.7866 3.50635 28.23 3.87781 29.0752C3.99451 29.3408 4.04993 29.6147 4.04993 29.8745C4.04993 30.4409 3.78625 30.9414 3.32056 31.146C2.6413 31.4443 1.78961 31.001 1.41815 30.1558C1.30145 29.8901 1.24603 29.6167 1.24603 29.3564C1.24603 28.79 1.5097 28.2896 1.9754 28.085ZM38.519 29.0752C38.8904 28.23 39.7422 27.7866 40.4214 28.085C40.8871 28.2896 41.1508 28.79 41.1508 29.3564C41.1508 29.6167 41.0954 29.8901 40.9786 30.1558C40.6072 31.001 39.7555 31.4443 39.0763 31.146C38.6105 30.9414 38.3469 30.4409 38.3469 29.8745C38.3469 29.6147 38.4023 29.3408 38.519 29.0752ZM4.89819 30.6504C4.82867 30.4854 4.79559 30.312 4.79559 30.1367C4.79559 29.4136 5.35736 28.6543 6.24084 28.2817C7.33868 27.8188 8.51746 28.1289 8.87378 28.9741C8.94336 29.1392 8.97638 29.3125 8.97638 29.4878C8.97638 30.2109 8.41461 30.9702 7.53113 31.3428C6.43329 31.8052 5.25452 31.4956 4.89819 30.6504ZM37.6012 30.1367C37.6012 30.312 37.5682 30.4854 37.4986 30.6504C37.1423 31.4956 35.9635 31.8052 34.8657 31.3428C33.9822 30.9702 33.4204 30.2109 33.4204 29.4878C33.4204 29.3125 33.4535 29.1392 33.523 28.9741C33.8793 28.1289 35.0581 27.8188 36.1559 28.2817C37.0394 28.6543 37.6012 29.4136 37.6012 30.1367ZM18.5305 31.9131C18.5305 30.4399 19.7247 29.2456 21.1978 29.2456C22.671 29.2456 23.8652 30.4399 23.8652 31.9131C23.8652 33.3862 22.671 34.5806 21.1978 34.5806C19.7247 34.5806 18.5305 33.3862 18.5305 31.9131ZM12.5139 32.7871C12.5139 31.314 13.7081 30.1196 15.1812 30.1196C16.6544 30.1196 17.8486 31.314 17.8486 32.7871C17.8486 34.2603 16.6544 35.4546 15.1812 35.4546C13.7081 35.4546 12.5139 34.2603 12.5139 32.7871ZM29.883 32.7871C29.883 34.2603 28.6887 35.4546 27.2156 35.4546C25.7424 35.4546 24.5482 34.2603 24.5482 32.7871C24.5482 31.314 25.7424 30.1196 27.2156 30.1196C28.6887 30.1196 29.883 31.314 29.883 32.7871ZM16.0998 36.9766C16.0998 36.0396 16.8007 35.2798 17.6652 35.2798C18.5298 35.2798 19.2307 36.0396 19.2307 36.9766C19.2307 37.9136 18.5298 38.6733 17.6652 38.6733C16.8007 38.6733 16.0998 37.9136 16.0998 36.9766ZM26.2971 36.9766C26.2971 37.9136 25.5961 38.6733 24.7316 38.6733C23.867 38.6733 23.1661 37.9136 23.1661 36.9766C23.1661 36.0396 23.867 35.2798 24.7316 35.2798C25.5961 35.2798 26.2971 36.0396 26.2971 36.9766ZM19.8226 36.7563Q19.8224 36.748 19.8224 36.7397C19.8224 35.9487 20.4271 35.3032 21.1802 35.2954C21.9387 35.2871 22.5607 35.9277 22.5693 36.7266Q22.5695 36.7354 22.5695 36.7437C22.5695 37.5347 21.9648 38.1797 21.2117 38.188C20.4532 38.1963 19.8312 37.5552 19.8226 36.7563ZM10.7473 37.7632C10.7473 36.4399 11.7535 35.3667 12.9949 35.3667C14.2361 35.3667 15.2425 36.4399 15.2425 37.7632C15.2425 39.0864 14.2361 40.1597 12.9949 40.1597C11.7535 40.1597 10.7473 39.0864 10.7473 37.7632ZM31.6486 37.7632C31.6486 39.0864 30.6423 40.1597 29.401 40.1597C28.1597 40.1597 27.1534 39.0864 27.1534 37.7632C27.1534 36.4399 28.1597 35.3667 29.401 35.3667C30.6423 35.3667 31.6486 36.4399 31.6486 37.7632ZM18.1984 39.7666C18.1984 39.1631 18.6291 38.6733 19.1604 38.6733C19.6917 38.6733 20.1224 39.1631 20.1224 39.7666C20.1224 40.3706 19.6917 40.8599 19.1604 40.8599C18.6291 40.8599 18.1984 40.3706 18.1984 39.7666ZM24.1974 39.7666C24.1974 40.3706 23.7667 40.8599 23.2354 40.8599C22.7041 40.8599 22.2734 40.3706 22.2734 39.7666C22.2734 39.1631 22.7041 38.6733 23.2354 38.6733C23.7667 38.6733 24.1974 39.1631 24.1974 39.7666ZM14.6476 40.7979C14.6476 39.8853 15.3328 39.145 16.1781 39.145C17.0234 39.145 17.7086 39.8853 17.7086 40.7979C17.7086 41.7109 17.0234 42.4512 16.1781 42.4512C15.3328 42.4512 14.6476 41.7109 14.6476 40.7979ZM27.7482 40.7979C27.7482 41.7109 27.063 42.4512 26.2177 42.4512C25.3725 42.4512 24.6873 41.7109 24.6873 40.7979C24.6873 39.8853 25.3725 39.145 26.2177 39.145C27.063 39.145 27.7482 39.8853 27.7482 40.7979Z" clip-rule="evenodd" fill="#80B857" fill-opacity="1.000000" fill-rule="evenodd"/>
	<path id="Union" d="M50.6113 2.88184L55.4604 2.88184L55.4604 13.1064L75.9931 13.1064L75.9931 2.88184L80.8423 2.88184L80.8423 28.208L75.9931 28.208L75.9931 17.9556L55.4604 17.9556L55.4604 28.208L50.6113 28.208L50.6113 2.88184ZM86.162 2.88184L116.393 2.88184L116.393 28.208L111.544 28.208L111.544 7.73096L91.0112 7.73096L91.0112 28.208L86.162 28.208L86.162 2.88184ZM121.714 2.88184L151.945 2.88184L151.945 28.208L147.096 28.208L147.096 7.73096L126.563 7.73096L126.563 28.208L121.714 28.208L121.714 2.88184ZM50.6113 32.7529L61.4457 32.7529L61.4457 34.4155L61.4453 34.4155L61.4453 40.123L61.4457 40.123L61.4457 41.7856L61.4453 41.7856L61.4453 41.7861L59.7827 41.7861L59.7827 41.7856L52.2734 41.7856L52.2734 41.7861L50.6108 41.7861L50.6108 38.1006L52.2734 38.1006L52.2734 36.4385L59.7827 36.4385L59.7827 34.4155L50.6113 34.4155L50.6113 32.7529ZM59.7827 40.123L59.7827 38.1011L52.2734 38.1011L52.2734 40.123L59.7827 40.123ZM65.1865 32.7529L65.1865 36.4385L72.8062 36.4385L72.8062 32.7529L74.4687 32.7529L74.4687 41.7861L72.8062 41.7861L72.8062 38.1011L65.1865 38.1011L65.1865 41.7861L63.5239 41.7861L63.5239 38.1011L63.5234 38.1011L63.5234 36.4385L63.5239 36.4385L63.5239 32.7529L65.1865 32.7529ZM76.4638 32.7529L87.4091 32.7529L87.4091 34.4155L78.1269 34.4155L78.1269 41.7861L76.4644 41.7861L76.4644 34.4155L76.4638 34.4155L76.4638 32.7529ZM89.3486 32.7529L100.294 32.7529L100.294 34.4155L91.0117 34.4155L91.0117 40.123L100.294 40.123L100.294 41.7856L91.0117 41.7856L91.0117 41.7861L89.3491 41.7861L89.3491 41.7856L89.3486 41.7856L89.3486 40.123L89.3491 40.123L89.3491 34.4155L89.3486 34.4155L89.3486 32.7529ZM102.233 32.7529L113.179 32.7529L113.179 34.4155L108.552 34.4155L108.552 41.7861L106.889 41.7861L106.889 34.4155L102.233 34.4155L102.233 32.7529ZM116.837 34.4155L116.837 40.123L124.457 40.123L124.457 34.4155L116.837 34.4155ZM116.837 41.7856L116.837 45.5825L115.174 45.5825L115.174 32.7529L126.12 32.7529L126.12 34.4155L126.119 34.4155L126.119 40.123L126.12 40.123L126.12 41.7856L126.119 41.7856L126.119 41.7861L124.457 41.7861L124.457 41.7856L116.837 41.7856ZM129.776 34.4155L129.776 36.4385L139.059 36.4385L139.059 38.1011L129.776 38.1011L129.776 40.123L139.059 40.123L139.059 41.7856L129.776 41.7856L129.776 41.7861L128.114 41.7861L128.114 32.7529L139.059 32.7529L139.059 34.4155L129.776 34.4155ZM140.916 32.7529L145.627 32.7529L145.627 34.415L147.289 34.415L147.289 32.7529L152 32.7529L152 34.415L152 34.415L152 41.7856L150.337 41.7856L150.337 34.4155L147.289 34.4155L147.289 41.7856L145.626 41.7856L145.626 34.4155L142.579 34.4155L142.579 41.7856L140.917 41.7856L140.917 34.4155L140.916 34.4155L140.916 32.7529Z" clip-rule="evenodd" fill="#FFFFFF" fill-opacity="1.000000" fill-rule="evenodd"/>
</svg>
