<svg width="118.999573" height="49.063477" viewBox="0 0 119 49.0635" fill="none" xmlns="http://www.w3.org/2000/svg" xmlns:xlink="http://www.w3.org/1999/xlink">
	<desc>
			Created with Pixso.
	</desc>
	<defs>
		<clipPath id="clip91_724">
			<rect id="Kazchrome" rx="0.000000" width="118.741493" height="48.805744" transform="translate(0.129038 0.129038)" fill="white" fill-opacity="0"/>
		</clipPath>
		<linearGradient x1="78.475380" y1="24.751404" x2="102.210152" y2="24.216034" id="paint_linear_91_754_0" gradientUnits="userSpaceOnUse">
			<stop stop-color="#808285"/>
			<stop offset="1.000000" stop-color="#414042"/>
		</linearGradient>
		<linearGradient x1="95.199615" y1="23.731394" x2="110.546913" y2="26.586700" id="paint_linear_91_759_0" gradientUnits="userSpaceOnUse">
			<stop stop-color="#808285"/>
			<stop offset="1.000000" stop-color="#414042"/>
		</linearGradient>
	</defs>
	<rect id="Kazchrome" rx="0.000000" width="118.741493" height="48.805744" transform="translate(0.129038 0.129038)" fill="#FFFFFF" fill-opacity="0"/>
	<g clip-path="url(#clip91_724)">
		<path id="path5226" d="M0.97 32.38L0.97 23.65L2.73 23.65L2.73 27.53L6.29 23.65L8.66 23.65L5.38 27.05L8.84 32.38L6.56 32.38L4.16 28.28L2.73 29.74L2.73 32.38L0.97 32.38Z" fill="#575756" fill-opacity="1.000000" fill-rule="nonzero"/>
		<path id="path5230" d="M14.37 28.93L13.17 25.69L11.99 28.93L14.37 28.93ZM17.62 32.38L15.7 32.38L14.94 30.4L11.45 30.4L10.73 32.38L8.86 32.38L12.26 23.65L14.12 23.65L17.62 32.38Z" fill="#575756" fill-opacity="1.000000" fill-rule="nonzero"/>
		<path id="path5234" d="M17.8 32.38L17.8 30.79L22.38 25.13L18.32 25.13L18.32 23.65L24.7 23.65L24.7 25.02L19.92 30.91L24.89 30.91L24.89 32.38L17.8 32.38Z" fill="#575756" fill-opacity="1.000000" fill-rule="nonzero"/>
		<mask id="mask91_747" mask-type="alpha" maskUnits="userSpaceOnUse" x="-6.161621" y="-6.162109" width="130.987732" height="64.600586">
			<path id="path5242" d="M-6.17 58.43L124.82 58.43L124.82 -6.17L-6.17 -6.17L-6.17 58.43Z" fill="#000000" fill-opacity="1.000000" fill-rule="nonzero"/>
		</mask>
		<g mask="url(#mask91_747)">
			<path id="path5246" d="M31.59 29.17L33.29 29.71C33.03 30.66 32.6 31.37 31.99 31.83C31.38 32.3 30.61 32.53 29.67 32.53C28.51 32.53 27.56 32.13 26.81 31.34C26.07 30.55 25.69 29.47 25.69 28.09C25.69 26.64 26.07 25.51 26.82 24.71C27.57 23.91 28.55 23.5 29.78 23.5C30.84 23.5 31.71 23.82 32.38 24.45C32.78 24.82 33.07 25.36 33.27 26.06L31.53 26.47C31.42 26.02 31.21 25.66 30.88 25.4C30.55 25.14 30.16 25.01 29.69 25.01C29.04 25.01 28.52 25.24 28.11 25.71C27.71 26.17 27.51 26.92 27.51 27.96C27.51 29.07 27.71 29.85 28.1 30.32C28.5 30.79 29.02 31.02 29.65 31.02C30.12 31.02 30.52 30.87 30.86 30.58C31.2 30.28 31.44 29.81 31.59 29.17Z" fill="#575756" fill-opacity="1.000000" fill-rule="nonzero"/>
			<path id="path5250" d="M34.81 32.38L34.81 23.65L36.57 23.65L36.57 27.09L40.03 27.09L40.03 23.65L41.79 23.65L41.79 32.38L40.03 32.38L40.03 28.56L36.57 28.56L36.57 32.38L34.81 32.38Z" fill="#575756" fill-opacity="1.000000" fill-rule="nonzero"/>
			<path id="path5254" d="M45.38 27.34L46.68 27.34C47.53 27.34 48.05 27.31 48.27 27.24C48.48 27.16 48.64 27.04 48.76 26.87C48.88 26.69 48.94 26.47 48.94 26.21C48.94 25.92 48.86 25.68 48.7 25.5C48.55 25.32 48.32 25.21 48.04 25.16C47.9 25.14 47.47 25.13 46.75 25.13L45.38 25.13L45.38 27.34ZM43.62 32.38L43.62 23.65L47.32 23.65C48.26 23.65 48.93 23.73 49.36 23.89C49.78 24.04 50.12 24.32 50.37 24.72C50.63 25.12 50.75 25.58 50.75 26.1C50.75 26.75 50.56 27.29 50.18 27.72C49.79 28.15 49.22 28.42 48.45 28.53C48.83 28.75 49.14 28.99 49.39 29.26C49.64 29.53 49.98 30 50.4 30.68L51.46 32.38L49.35 32.38L48.08 30.48C47.63 29.8 47.32 29.37 47.15 29.2C46.98 29.02 46.81 28.9 46.62 28.83C46.44 28.77 46.14 28.74 45.73 28.74L45.38 28.74L45.38 32.38L43.62 32.38Z" fill="#575756" fill-opacity="1.000000" fill-rule="nonzero"/>
			<path id="path5258" d="M53.87 28.01C53.87 29 54.1 29.75 54.56 30.26C55.01 30.77 55.59 31.02 56.3 31.02C57 31.02 57.57 30.77 58.02 30.26C58.47 29.76 58.7 29 58.7 27.99C58.7 26.99 58.48 26.24 58.04 25.75C57.6 25.25 57.02 25.01 56.3 25.01C55.57 25.01 54.98 25.26 54.54 25.76C54.09 26.25 53.87 27 53.87 28.01ZM52.06 28.07C52.06 27.18 52.19 26.43 52.46 25.83C52.65 25.39 52.92 24.99 53.27 24.63C53.61 24.28 53.99 24.02 54.4 23.85C54.94 23.62 55.57 23.5 56.28 23.5C57.56 23.5 58.59 23.9 59.36 24.7C60.14 25.5 60.52 26.61 60.52 28.03C60.52 29.44 60.14 30.54 59.37 31.33C58.61 32.13 57.58 32.53 56.3 32.53C55 32.53 53.97 32.13 53.21 31.34C52.44 30.55 52.06 29.46 52.06 28.07Z" fill="#575756" fill-opacity="1.000000" fill-rule="nonzero"/>
			<path id="path5262" d="M61.87 32.38L61.87 23.65L64.51 23.65L66.09 29.6L67.66 23.65L70.3 23.65L70.3 32.38L68.66 32.38L68.66 25.51L66.93 32.38L65.24 32.38L63.51 25.51L63.51 32.38L61.87 32.38Z" fill="#575756" fill-opacity="1.000000" fill-rule="nonzero"/>
			<path id="path5266" d="M72.05 32.38L72.05 23.65L78.52 23.65L78.52 25.13L73.81 25.13L73.81 27.06L78.19 27.06L78.19 28.53L73.81 28.53L73.81 30.91L78.69 30.91L78.69 32.38L72.05 32.38Z" fill="#575756" fill-opacity="1.000000" fill-rule="nonzero"/>
		</g>
		<path id="path5286" d="M72.16 9.54C89.01 19.97 90.68 32.71 75.01 48.08C92.73 34.9 101.62 19.23 101.43 0.97C95.27 14.02 84.86 15.01 72.16 9.54Z" fill="url(#paint_linear_91_754_0)" fill-opacity="1.000000" fill-rule="nonzero"/>
		<path id="path5306" d="M86.25 47.91C93.24 35.29 104.18 34.57 118.02 42.55C98.78 29.78 100.28 16.14 116.59 1.87C99.42 13.56 87.94 28.21 86.25 47.91Z" fill="url(#paint_linear_91_759_0)" fill-opacity="1.000000" fill-rule="nonzero"/>
	</g>
</svg>
