<svg width="133.885376" height="28.139648" viewBox="0 0 133.885 28.1396" fill="none" xmlns="http://www.w3.org/2000/svg" xmlns:xlink="http://www.w3.org/1999/xlink">
	<desc>
			Created with Pixso.
	</desc>
	<defs/>
	<path id="Vector" d="M91.45 14.11L91.45 9.36L88.59 9.36L88.59 18.74L91.25 18.74L94.35 14.03L94.35 18.74L97.2 18.74L97.2 9.36L94.55 9.36L91.45 14.11ZM74.96 13.15C74.96 13.49 74.79 14.15 73.92 14.15L72.9 14.15L72.9 11.67L74.04 11.67C74.35 11.67 74.96 11.92 74.96 12.65L74.96 13.15ZM74.35 9.36L69.89 9.36L69.89 18.74L72.9 18.74L72.9 16.44L74.35 16.44C76.3 16.44 77.9 15.36 77.9 13.45L77.9 12.35C77.9 10.44 76.3 9.36 74.35 9.36ZM117.1 14.32C117.1 15.75 116.72 15.96 116.18 16.21C115.95 16.32 115.31 16.29 115.31 16.29L115.31 18.74L116.49 18.74C119.03 18.74 119.97 17.26 120.01 13.95C120.02 13.2 120 12.47 120.01 11.81L121.7 11.81L121.7 18.74L124.72 18.74L124.72 9.36L117.1 9.36L117.1 14.32ZM65.83 15.58C65.83 16.21 65.32 16.72 64.7 16.72L64.44 16.72C63.82 16.72 63.31 16.21 63.31 15.58L63.31 12.54C63.31 11.92 63.82 11.41 64.44 11.41L64.7 11.41C65.32 11.41 65.83 11.92 65.83 12.54L65.83 15.58ZM65.31 9.21L63.83 9.21C61.88 9.21 60.28 10.6 60.28 12.76L60.28 15.37C60.28 17.54 61.88 18.93 63.83 18.93L65.31 18.93C67.26 18.93 68.86 17.53 68.86 15.37L68.86 12.76C68.86 10.48 67.26 9.21 65.31 9.21ZM107.14 9.36L103.88 9.36L102.28 12.9L101.54 12.9L101.54 9.36L98.52 9.36L98.52 18.74L101.54 18.74L101.54 15.41L102.28 15.41L103.91 18.74L107.37 18.74L104.81 14.01L107.14 9.36ZM110.88 15.18L114.28 15.18L114.28 12.95L110.88 12.95L110.88 11.81L114.59 11.81L114.59 9.36L107.87 9.36L107.87 18.74L114.87 18.74L114.87 16.29L110.88 16.29L110.88 15.18ZM130.02 16.43L128.89 16.43L128.89 14.38L129.9 14.38C130.75 14.38 130.94 15.01 130.94 15.41C130.94 16.26 130.25 16.43 130.02 16.43ZM130.33 12.1L128.89 12.1L128.89 9.36L125.87 9.36L125.87 18.74L130.33 18.74C132.28 18.74 133.88 17.66 133.88 15.75L133.88 15.09C133.88 13.17 132.28 12.1 130.33 12.1ZM84.26 12.83L81.68 12.83L81.68 9.36L78.66 9.36L78.66 18.74L81.68 18.74L81.68 15.41L84.26 15.41L84.26 18.74L87.27 18.74L87.27 9.36L84.26 9.36L84.26 12.83ZM56.24 12.83L53.67 12.83L53.67 9.36L50.65 9.36L50.65 18.74L53.67 18.74L53.67 15.41L56.24 15.41L56.24 18.74L59.26 18.74L59.26 9.36L56.24 9.36L56.24 12.83ZM35.95 21.88C34.6 23.24 32.95 24.2 31.16 24.71L31.16 3.43C32.95 3.93 34.6 4.89 35.95 6.25C38.04 8.34 39.19 11.11 39.19 14.06C39.19 17.02 38.04 19.79 35.95 21.88ZM14.07 15.01L14.07 3.64L28.13 13.13L28.13 24.5L14.07 15.01ZM11.05 24.71C9.25 24.2 7.61 23.24 6.25 21.88C4.16 19.79 3.01 17.02 3.01 14.07C3.01 11.11 4.16 8.34 6.25 6.25C7.61 4.89 9.25 3.93 11.05 3.43L11.05 24.71ZM28.13 0L28.13 9.49L14.07 0C6.3 0 0 6.3 0 14.07C0 21.84 6.3 28.13 14.07 28.13L14.07 18.64L28.13 28.13C35.91 28.13 42.21 21.84 42.21 14.06C42.21 6.3 35.91 0 28.13 0Z" fill="#525255" fill-opacity="1.000000" fill-rule="nonzero"/>
</svg>
