<svg width="133.990601" height="12.431641" viewBox="0 0 133.991 12.4316" fill="none" xmlns="http://www.w3.org/2000/svg" xmlns:xlink="http://www.w3.org/1999/xlink">
	<desc>
			Created with Pixso.
	</desc>
	<defs/>
	<path id="Михеевский ГОК" d="M91.32 2.54C91.79 2.78 92.33 2.91 92.95 2.91C93.55 2.91 94.08 2.78 94.55 2.53C95.01 2.28 95.37 1.94 95.63 1.5C95.89 1.06 96.01 0.55 96 -0.01L94.3 -0.01Q94.33 0.56 94.09 0.94Q94.03 1.03 93.96 1.11C93.72 1.38 93.38 1.52 92.95 1.52Q92.49 1.52 92.16 1.31Q92.03 1.23 91.92 1.11C91.68 0.82 91.56 0.45 91.58 -0.01L89.89 -0.01C89.88 0.57 89.99 1.07 90.24 1.51C90.5 1.94 90.86 2.29 91.32 2.54ZM113.98 11.99Q115.07 12.43 116.34 12.43Q117.61 12.43 118.69 11.99C119.41 11.69 120.04 11.27 120.57 10.75Q120.84 10.48 121.06 10.19Q121.52 9.6 121.82 8.89C122.12 8.18 122.26 7.41 122.26 6.59C122.26 5.77 122.12 5.01 121.82 4.31Q121.53 3.63 121.1 3.06Q120.86 2.73 120.57 2.44C120.04 1.91 119.41 1.49 118.69 1.19C117.97 0.9 117.19 0.75 116.34 0.75Q115.07 0.75 113.98 1.19C113.26 1.48 112.64 1.89 112.1 2.42C111.57 2.95 111.16 3.57 110.86 4.27Q110.42 5.34 110.42 6.59Q110.42 7.79 110.84 8.83Q110.85 8.86 110.86 8.89C111.16 9.6 111.57 10.22 112.1 10.75C112.64 11.27 113.26 11.69 113.98 11.99ZM-1.57e-5 0.99L-1.57e-5 12.19L1.9 12.19L1.87 4.41L5.23 9.87L6.69 9.87L9.92 4.49L9.89 12.19L11.92 12.19L11.92 0.99L9.93 0.99L6.05 7.62L2 0.99L-1.57e-5 0.99ZM103.29 0.99L103.29 12.19L105.37 12.19L105.37 2.89L109.8 2.89L109.8 0.99L103.29 0.99ZM124.39 0.99L124.39 12.19L126.47 12.19L126.47 7.24L127.47 7.24L131.31 12.19L133.99 12.19L129.28 6.31L133.39 0.99L130.82 0.99L127.49 5.34L126.47 5.34L126.47 0.99L124.39 0.99ZM117.82 10.19C117.36 10.38 116.87 10.47 116.34 10.47C115.64 10.47 115 10.31 114.43 9.99C113.87 9.67 113.42 9.22 113.09 8.63Q112.6 7.76 112.6 6.59C112.6 5.99 112.69 5.46 112.88 4.99Q113.15 4.33 113.6 3.84Q113.63 3.8 113.67 3.76C114.01 3.42 114.41 3.16 114.86 2.98Q115.54 2.71 116.34 2.71Q117.19 2.71 117.91 3.02Q118.08 3.09 118.25 3.19C118.81 3.51 119.26 3.96 119.59 4.54C119.92 5.12 120.09 5.8 120.09 6.59C120.09 7.17 119.99 7.71 119.8 8.19Q119.57 8.77 119.18 9.23Q119.1 9.32 119.01 9.41C118.67 9.75 118.28 10.01 117.82 10.19ZM34.95 11.9C35.61 12.25 36.37 12.43 37.24 12.43C37.62 12.43 38.01 12.39 38.42 12.31C38.84 12.23 39.23 12.11 39.61 11.96C39.98 11.81 40.29 11.64 40.54 11.43L39.82 10C39.46 10.26 39.07 10.46 38.65 10.59C38.23 10.73 37.79 10.79 37.33 10.79C36.81 10.79 36.36 10.71 35.98 10.53C35.6 10.35 35.3 10.1 35.1 9.79Q35.05 9.71 35.01 9.63Q34.79 9.22 34.8 8.68L41.06 8.68C41.16 8.01 41.14 7.38 41 6.81C40.86 6.23 40.62 5.73 40.26 5.31C39.92 4.87 39.48 4.54 38.95 4.31C38.42 4.07 37.82 3.95 37.15 3.95C36.53 3.95 35.96 4.05 35.44 4.26C34.92 4.47 34.47 4.76 34.08 5.15C33.7 5.53 33.4 5.97 33.18 6.49C32.98 7.01 32.87 7.58 32.87 8.19C32.87 9.04 33.05 9.78 33.42 10.41C33.78 11.05 34.3 11.54 34.95 11.9ZM44.3 11.9C44.95 12.25 45.71 12.43 46.58 12.43C46.96 12.43 47.36 12.39 47.77 12.31C48.18 12.23 48.58 12.11 48.95 11.96C49.33 11.81 49.64 11.64 49.89 11.43L49.17 10C48.81 10.26 48.41 10.46 47.99 10.59C47.57 10.73 47.13 10.79 46.67 10.79C46.15 10.79 45.7 10.71 45.32 10.53C44.94 10.35 44.65 10.1 44.44 9.79Q44.39 9.71 44.35 9.63Q44.14 9.22 44.14 8.68L50.4 8.68C50.51 8.01 50.49 7.38 50.34 6.81C50.21 6.23 49.96 5.73 49.61 5.31C49.26 4.87 48.82 4.54 48.3 4.31C47.77 4.07 47.17 3.95 46.5 3.95C45.88 3.95 45.31 4.05 44.78 4.26C44.27 4.47 43.81 4.76 43.42 5.15C43.04 5.53 42.74 5.97 42.53 6.49C42.32 7.01 42.22 7.58 42.22 8.19C42.22 9.04 42.4 9.78 42.76 10.41C43.13 11.05 43.64 11.54 44.3 11.9ZM62.79 11.87C63.45 12.24 64.21 12.43 65.05 12.43Q65.34 12.43 65.62 12.39Q66.17 12.33 66.7 12.15C67.24 11.96 67.73 11.7 68.17 11.38L67.25 9.83C67 10.08 66.7 10.27 66.35 10.42C66 10.56 65.63 10.63 65.25 10.63C64.47 10.63 63.85 10.42 63.4 9.99Q63.28 9.87 63.18 9.73Q62.73 9.12 62.73 8.18C62.73 7.66 62.83 7.22 63.03 6.86C63.23 6.5 63.52 6.22 63.89 6.03C64.27 5.83 64.72 5.74 65.25 5.74C65.59 5.74 65.92 5.79 66.24 5.91C66.56 6.01 66.84 6.18 67.09 6.4L68.05 4.86C67.65 4.55 67.21 4.32 66.73 4.17C66.25 4.02 65.73 3.95 65.17 3.95C64.52 3.95 63.92 4.05 63.37 4.27C62.83 4.47 62.35 4.77 61.95 5.15Q61.7 5.38 61.5 5.65Q61.21 6.04 61.01 6.5C60.78 7.01 60.67 7.57 60.67 8.19C60.67 9 60.86 9.72 61.24 10.36Q61.48 10.76 61.79 11.09Q62.22 11.55 62.79 11.87ZM14.51 4.19L14.51 12.19L16.3 12.19L20.36 7.07L20.36 12.19L22.33 12.19L22.33 4.19L20.52 4.19L16.48 9.24L16.48 4.19L14.51 4.19ZM26.61 8.19L23.72 12.2L26.24 12.17L27.96 9.56L29.65 12.19L32.28 12.19L29.41 8.15L32.06 4.19L29.54 4.19L28.03 6.75L26.47 4.19L23.88 4.19L26.61 8.19ZM52.15 4.19L52.15 12.19L56.23 12.19Q57.25 12.19 57.97 11.9Q58.68 11.62 59.05 11.1Q59.06 11.09 59.07 11.07C59.32 10.72 59.45 10.29 59.45 9.79Q59.45 9.28 59.24 8.88Q59.09 8.59 58.83 8.35C58.6 8.14 58.32 7.97 57.99 7.85C58.04 7.83 58.1 7.8 58.15 7.77C58.45 7.61 58.68 7.4 58.85 7.15C59.02 6.89 59.11 6.59 59.11 6.25C59.11 5.56 58.83 5.05 58.29 4.71Q57.48 4.19 56.1 4.19L52.15 4.19ZM69.7 4.19L69.7 12.19L71.75 12.19L71.75 8.87L72.93 8.87L74.96 12.19L77.4 12.19L74.57 7.86L77.04 4.19L74.87 4.19L72.87 7.2L71.75 7.2L71.75 4.19L69.7 4.19ZM78.87 4.19L78.87 12.19L80.66 12.19L84.72 7.07L84.72 12.19L86.69 12.19L86.69 4.19L84.88 4.19L80.84 9.24L80.84 4.19L78.87 4.19ZM89.04 4.19L89.04 12.19L90.83 12.19L94.89 7.07L94.89 12.19L96.86 12.19L96.86 4.19L95.05 4.19L91.01 9.24L91.01 4.19L89.04 4.19ZM39.07 7.23L34.92 7.23C34.98 6.69 35.21 6.27 35.6 5.96C35.99 5.65 36.5 5.5 37.1 5.5Q38.01 5.5 38.52 5.95Q38.53 5.96 38.54 5.96C38.88 6.27 39.06 6.69 39.07 7.23ZM48.42 7.23L44.26 7.23C44.32 6.69 44.55 6.27 44.94 5.96C45.34 5.65 45.84 5.5 46.45 5.5Q47.35 5.5 47.86 5.95Q47.87 5.96 47.88 5.96C48.22 6.27 48.4 6.69 48.42 7.23ZM55.96 10.73L54.12 10.73L54.12 8.83L55.96 8.83Q56.68 8.83 57.06 9.07C57.31 9.23 57.44 9.46 57.44 9.77C57.44 10.09 57.31 10.33 57.06 10.49Q56.67 10.73 55.96 10.73ZM54.12 7.43L54.12 5.64L55.77 5.64C56.21 5.64 56.56 5.71 56.8 5.86C57.05 6 57.18 6.23 57.18 6.55C57.18 6.86 57.05 7.08 56.81 7.23C56.56 7.37 56.22 7.43 55.77 7.43L54.12 7.43Z" fill="#525255" fill-opacity="1.000000" fill-rule="evenodd"/>
</svg>
